<svg id="SvgjsSvg1066" xmlns="http://www.w3.org/2000/svg" xmlns:xlink="http://www.w3.org/1999/xlink" viewBox="0 0 276.67 240.58"><defs><style>.cls-1{fill:url(#linear-gradient);}.cls-2{fill:url(#linear-gradient-2);}.cls-3{fill:url(#linear-gradient-3);}.cls-4{fill:url(#linear-gradient-4);}.cls-5{fill:url(#linear-gradient-5);}.cls-6{fill:url(#linear-gradient-6);}.cls-7{fill:url(#linear-gradient-7);}</style><linearGradient id="linear-gradient" x1="2774.94" y1="-1150.14" x2="3920.77" y2="-1979.88" gradientTransform="matrix(0.23, 0, 0, -0.23, -634.18, -241.09)" gradientUnits="userSpaceOnUse"><stop offset="0.08" stop-color="#2c7ace"/><stop offset="0.47" stop-color="#7722c3"/><stop offset="0.91" stop-color="#e80fa5"/></linearGradient><linearGradient id="linear-gradient-2" x1="2570.95" y1="-1431.85" x2="3716.78" y2="-2261.59" xlink:href="#linear-gradient"/><linearGradient id="linear-gradient-3" x1="2891.42" y1="-989.29" x2="4037.25" y2="-1819.03" xlink:href="#linear-gradient"/><linearGradient id="linear-gradient-4" x1="3095.43" y1="-707.56" x2="4241.26" y2="-1537.31" xlink:href="#linear-gradient"/><linearGradient id="linear-gradient-5" x1="2776.52" y1="-2007.27" x2="3944.19" y2="-2007.27" gradientTransform="matrix(0.23, 0, 0, -0.23, -634.18, -241.09)" gradientUnits="userSpaceOnUse"><stop offset="0" stop-color="#2c7ace"/><stop offset="0.38" stop-color="#7722c3"/><stop offset="0.9" stop-color="#e80fa5"/></linearGradient><linearGradient id="linear-gradient-6" x1="2776.52" y1="-2006.67" x2="3944.19" y2="-2006.67" gradientTransform="matrix(0.23, 0, 0, -0.23, -627.67, -217.67)" xlink:href="#linear-gradient-5"/><linearGradient id="linear-gradient-7" x1="2776.52" y1="-2007.22" x2="3944.19" y2="-2007.22" gradientTransform="matrix(0.23, 0, 0, -0.23, -627.67, -217.67)" xlink:href="#linear-gradient-5"/></defs><g id="SvgjsG1068"><polygon class="cls-1" points="11.19 0 121.57 185.83 188.48 185.83 78.08 0 11.19 0"/><polygon class="cls-2" points="0.8 185.83 110.65 185.83 55.74 93.78 0.8 185.83"/><polygon class="cls-3" points="89.02 0 199.39 185.83 266.3 185.83 155.91 0 89.02 0"/><polygon class="cls-4" points="276.67 0 166.85 0 221.76 92.05 276.67 0"/><polygon class="cls-5" points="34.89 200.63 30.75 216.17 15.03 216.17 19.19 200.63 10.55 200.63 0 239.92 8.64 239.92 12.89 224.15 28.62 224.15 24.34 239.92 32.98 239.92 43.53 200.63 34.89 200.63"/><path class="cls-6" d="M72.49,223.78,45.05,263.34h9.31l6-8.81H76.93l1.24,8.81H87l-6.23-39.56Zm-7,23.12,8.65-13,1.79,13Z" transform="translate(-6.5 -23.42)"/><path class="cls-7" d="M113.36,240.21c-5.33-2.18-6.89-3.08-6.89-5.17s2.06-4,5.72-4c3.81,0,6.46,1.47,9.42,4.2l6-6c-3.31-3.54-8-5.84-14.71-5.84-8.42,0-15.61,4.94-15.61,13,0,5.76,4.55,8.52,9.65,10.61,5.29,2.14,6.69,3.27,6.69,5.18,0,2.45-2.53,4.09-6,4.09-4.48,0-7.9-1.8-11-5.17l-6.51,5.49c3.7,4.78,9.54,7.24,17.12,7.24,8.26,0,15.61-4.83,15.61-13.08C122.79,245.09,118.74,242.4,113.36,240.21Z" transform="translate(-6.5 -23.42)"/><polygon class="cls-5" points="151.24 216.17 135.52 216.17 139.68 200.63 131.04 200.63 120.49 239.92 129.13 239.92 133.38 224.15 149.1 224.15 144.83 239.92 153.47 239.92 164.02 200.63 155.38 200.63 151.24 216.17"/><polygon class="cls-5" points="202.31 200.63 169.77 200.63 167.63 208.61 179.58 208.61 171.15 239.92 179.79 239.92 188.22 208.61 200.18 208.61 202.31 200.63"/><path class="cls-6" d="M223.3,223.78l-27.45,39.56h9.31l6-8.81h16.61l1.24,8.81h8.88l-6.23-39.56Zm-7,23.12,8.65-13,1.79,13Z" transform="translate(-6.5 -23.42)"/><path class="cls-5" d="M261.77,248.19h8.72l-1.87,6.39a16.51,16.51,0,0,1-7,1.52c-5.56,0-10-3.31-10-9.43,0-8.18,6.46-15.37,14.87-15.37a13.08,13.08,0,0,1,10.32,4.55l6.39-5.66c-2.76-3.58-7.75-6.8-16-6.8-14.14,0-24.53,11.33-24.53,23.56,0,11.72,9.49,17.05,18.46,17.05a27.86,27.86,0,0,0,14.25-3.7l5.56-19.58H263.8Z" transform="translate(-6.5 -23.42)"/></g></svg>